<?xml version="1.0" standalone="no"?>
<!DOCTYPE svg PUBLIC "-//W3C//DTD SVG 20010904//EN"
 "http://www.w3.org/TR/2001/REC-SVG-20010904/DTD/svg10.dtd">
<svg version="1.0" xmlns="http://www.w3.org/2000/svg"
 width="460.000000pt" height="460.000000pt" viewBox="0 0 460.000000 460.000000"
 preserveAspectRatio="xMidYMid meet">
<metadata>
Created by potrace 1.11, written by Peter Selinger 2001-2013
</metadata>
<g transform="translate(0.000000,460.000000) scale(0.100000,-0.100000)"
fill="#000000" stroke="none">
<path d="M1975 4544 c-220 -26 -373 -67 -566 -149 -534 -228 -964 -711 -1125
-1263 -14 -48 -28 -98 -30 -112 -3 -14 -7 -33 -10 -42 -7 -23 -11 -48 -19
-104 -3 -27 -10 -76 -15 -109 -8 -61 -6 -412 3 -452 3 -11 8 -43 12 -70 9 -64
65 -295 75 -308 4 -5 10 -23 14 -40 4 -16 16 -48 27 -72 10 -23 19 -45 19 -48
0 -6 60 -127 101 -205 8 -14 44 -71 81 -125 295 -439 751 -742 1278 -850 8 -1
35 -6 60 -9 25 -3 56 -8 70 -11 14 -3 98 -8 187 -11 l162 -7 26 59 c14 32 40
81 58 109 40 63 125 147 139 139 6 -4 8 -2 5 4 -8 12 67 60 143 90 56 22 140
43 140 36 0 -3 8 0 18 5 16 9 17 40 17 481 0 259 4 474 8 477 5 3 46 16 91 28
161 45 653 186 731 210 71 21 203 59 245 70 8 2 47 13 85 25 39 12 95 28 125
36 30 8 56 17 58 19 8 8 8 314 1 395 -10 103 -14 129 -35 228 -9 42 -18 85
-19 95 -21 105 -139 383 -225 527 -30 52 -117 179 -129 190 -3 3 -24 28 -46
55 -85 107 -199 213 -385 359 -43 33 -165 104 -268 156 -146 72 -303 129 -447
161 -70 15 -73 16 -135 24 -30 5 -64 10 -75 12 -61 9 -364 8 -450 -3z m-758
-1008 l246 -245 -45 -53 c-152 -180 -237 -381 -254 -602 -3 -39 -7 -73 -9 -76
-5 -8 -72 -3 -85 5 -6 3 -10 3 -10 -2 0 -4 -133 -8 -295 -8 -320 0 -316 -1
-309 54 1 14 5 60 8 101 3 41 8 84 10 95 2 11 7 40 11 65 7 48 38 168 60 235
67 203 188 417 325 575 35 41 69 80 75 87 5 7 14 12 18 13 5 0 119 -110 254
-244z m1174 -225 c101 -27 159 -53 239 -106 162 -108 273 -268 326 -470 30
-116 23 -296 -15 -408 -75 -218 -205 -368 -402 -464 -118 -58 -200 -77 -339
-77 -164 -1 -290 35 -420 119 -221 143 -350 375 -355 637 -2 107 20 252 36
242 5 -3 6 1 3 9 -7 19 43 129 91 201 114 172 327 308 520 332 28 4 51 8 53 9
11 10 201 -7 263 -24z"/>
<path d="M2131 2740 c-128 -53 -164 -209 -72 -314 27 -31 91 -58 137 -58 166
0 257 203 144 321 -16 16 -42 36 -57 44 -33 17 -119 20 -152 7z"/>
<path d="M4120 2074 c-140 -41 -286 -83 -325 -93 -38 -11 -110 -31 -160 -46
-179 -53 -401 -117 -466 -135 -37 -9 -71 -20 -76 -23 -5 -3 -8 -236 -8 -529 1
-288 0 -526 -2 -530 -2 -4 -24 2 -49 13 -58 26 -167 35 -233 19 -28 -6 -77
-29 -109 -50 -213 -137 -225 -443 -23 -601 206 -162 523 -49 582 208 7 31 11
226 11 566 0 284 2 517 4 517 2 0 52 14 111 31 58 17 114 33 122 35 9 2 142
40 296 85 154 45 300 87 325 94 25 7 53 16 63 20 12 5 17 2 18 -11 1 -25 1
-574 0 -596 -1 -15 -6 -15 -48 5 -38 17 -67 21 -143 22 -83 0 -102 -3 -153
-27 -203 -95 -277 -351 -156 -537 181 -275 601 -197 669 126 7 31 9 310 8 779
l-3 731 -255 -73z"/>
</g>
</svg>
